<?xml version="1.0" encoding="utf-8"?>
<!-- Generator: Adobe Illustrator 16.0.4, SVG Export Plug-In . SVG Version: 6.00 Build 0)  -->
<!DOCTYPE svg PUBLIC "-//W3C//DTD SVG 1.1//EN" "http://www.w3.org/Graphics/SVG/1.1/DTD/svg11.dtd">
<svg version="1.1" id="Layer_1" xmlns="http://www.w3.org/2000/svg" xmlns:xlink="http://www.w3.org/1999/xlink" x="0px" y="0px"
	 width="159.76px" height="159.76px" viewBox="0 0 159.76 159.76" enable-background="new 0 0 159.76 159.76" xml:space="preserve">
<g>
	<path fill="#FFFFFF" stroke="#F7AE5D" stroke-width="6" stroke-miterlimit="10" d="M156.76,134.95c0,12.05-9.77,21.81-21.81,21.81
		H24.81C12.77,156.76,3,146.99,3,134.95V24.81C3,12.77,12.77,3,24.81,3h110.13c12.05,0,21.81,9.77,21.81,21.81V134.95z"/>
	<path fill="#36BCC8" d="M61.68,39.59c0,7.51-6.08,13.6-13.59,13.6c-7.51,0-13.6-6.09-13.6-13.6c0-7.51,6.09-13.6,13.6-13.6
		C55.6,25.99,61.68,32.08,61.68,39.59z"/>
	<path fill="#36BCC8" d="M61.68,81.6c0,7.51-6.08,13.6-13.59,13.6c-7.51,0-13.6-6.09-13.6-13.6c0-7.51,6.09-13.6,13.6-13.6
		C55.6,68,61.68,74.09,61.68,81.6z"/>
	<path fill="#36BCC8" d="M61.68,123.61c0,7.51-6.08,13.6-13.59,13.6c-7.51,0-13.6-6.09-13.6-13.6c0-7.51,6.09-13.6,13.6-13.6
		C55.6,110.01,61.68,116.1,61.68,123.61z"/>
	<path fill="#36BCC8" d="M125.27,39.59c0,7.51-6.09,13.6-13.6,13.6c-7.51,0-13.6-6.09-13.6-13.6c0-7.51,6.09-13.6,13.6-13.6
		C119.18,25.99,125.27,32.08,125.27,39.59z"/>
	<path fill="#36BCC8" d="M125.27,81.6c0,7.51-6.09,13.6-13.6,13.6c-7.51,0-13.6-6.09-13.6-13.6c0-7.51,6.09-13.6,13.6-13.6
		C119.18,68,125.27,74.09,125.27,81.6z"/>
	<path fill="#36BCC8" d="M125.27,123.61c0,7.51-6.09,13.6-13.6,13.6c-7.51,0-13.6-6.09-13.6-13.6c0-7.51,6.09-13.6,13.6-13.6
		C119.18,110.01,125.27,116.1,125.27,123.61z"/>
</g>
</svg>
