<?xml version="1.0" encoding="utf-8"?>
<!-- Generator: Adobe Illustrator 16.0.4, SVG Export Plug-In . SVG Version: 6.00 Build 0)  -->
<!DOCTYPE svg PUBLIC "-//W3C//DTD SVG 1.1//EN" "http://www.w3.org/Graphics/SVG/1.1/DTD/svg11.dtd">
<svg version="1.1" id="Layer_1" xmlns="http://www.w3.org/2000/svg" xmlns:xlink="http://www.w3.org/1999/xlink" x="0px" y="0px"
	 width="159.76px" height="159.76px" viewBox="0 0 159.76 159.76" enable-background="new 0 0 159.76 159.76" xml:space="preserve">
<g>
	<path fill="#FFFFFF" stroke="#F7AE5D" stroke-width="6" stroke-miterlimit="10" d="M156.76,134.95c0,12.04-9.77,21.81-21.81,21.81
		H24.81C12.77,156.76,3,146.99,3,134.95V24.81C3,12.77,12.77,3,24.81,3h110.13c12.05,0,21.81,9.77,21.81,21.81V134.95z"/>
	<path fill="#36BCC8" d="M61.68,48.76c0,7.51-6.08,13.6-13.59,13.6s-13.6-6.09-13.6-13.6c0-7.51,6.09-13.6,13.6-13.6
		S61.68,41.24,61.68,48.76z"/>
	<path fill="#36BCC8" d="M61.68,114.45c0,7.51-6.08,13.6-13.59,13.6s-13.6-6.09-13.6-13.6c0-7.51,6.09-13.6,13.6-13.6
		S61.68,106.93,61.68,114.45z"/>
	<path fill="#36BCC8" d="M125.27,48.76c0,7.51-6.09,13.6-13.6,13.6c-7.51,0-13.6-6.09-13.6-13.6c0-7.51,6.09-13.6,13.6-13.6
		C119.18,35.16,125.27,41.24,125.27,48.76z"/>
	<path fill="#36BCC8" d="M125.27,114.45c0,7.51-6.09,13.6-13.6,13.6c-7.51,0-13.6-6.09-13.6-13.6c0-7.51,6.09-13.6,13.6-13.6
		C119.18,100.85,125.27,106.93,125.27,114.45z"/>
</g>
</svg>
